<?xml version="1.0" encoding="UTF-8"?>
<svg id="Layer_1" xmlns="http://www.w3.org/2000/svg" version="1.1" viewBox="0 0 1000 1000">
  <!-- Generator: Adobe Illustrator 30.1.0, SVG Export Plug-In . SVG Version: 2.1.1 Build 136)  -->
  <defs>
    <style>
      .st0 {
        stroke: #000;
        stroke-miterlimit: 10;
        stroke-width: 8px;
      }
    </style>
  </defs>
  <path class="st0" d="M642.24,409.09c-1.35,1.05-2.72,2.11-4.08,3.18-1.56-.92-3.11-1.83-4.65-2.74h-.01s-.91,155.06-.91,155.06c1.47-.93,2.94-1.87,4.4-2.81l4.36,3.37.91-156.06h0ZM854.58,408.74c-8.85,7.08-15.47,13.7-19.87,19.86,4.03,25.69,2.66,44.48,2.61,57.66.11,11.85-.51,29.5-1.85,52.96,0,0,0,0-.01.01-.13,2.44-.28,4.94-.43,7.5.79,1.15,1.66,2.33,2.64,3.55,4.03,5,9.69,10.53,16.97,16.57,5.57-25.74,8.47-52.48,8.4-79.9-.07-26.83-2.98-52.99-8.45-78.2h0ZM737.81,336.06c.67,1.35,1.35,2.72,2.03,4.1-1.98,1.23-3.97,2.48-5.98,3.75,21.47,12.87,42.04,25.98,59.15,41.25,16.21,14.47,29.38,30.95,42.02,48.07-.1-1.52-.21-3.06-.32-4.62,1.18-1.65,2.52-3.34,4.03-5.07-11.81-15.76-24.51-31.19-39.89-44.92-17.87-15.94-39.27-29.53-61.03-42.56h0ZM499.75,202l-.48,9.41c-1.34,33.91-5.56,71.91-12.65,114.01,44.11,24.39,94.63,53.34,151.54,86.86,37.42-29.23,71.32-53.27,101.69-72.12-19.63-39.59-34.04-66.69-43.24-81.27-9.31-15.51-22.65-33.56-40.03-54.15-34.24-4.77-60.08-7.2-77.54-7.3-17.4-.51-43.83,1.01-79.29,4.56M675.48,165.07l-23.84,38.99c1.63.22,3.27.45,4.94.68.96,1.13,1.9,2.26,2.84,3.38l23.62-38.62c-2.49-1.51-5.01-2.99-7.55-4.43h0ZM378.45,157.64c-.3.97-.61,1.91-.93,2.82l-.75,2.34c-1.98.85-3.92,1.68-5.83,2.51,25.02,3.92,49.37,8.31,71.39,15.91,20.37,7.04,38.83,16.85,57.07,27.4l.34-6.64c1.64-.16,3.25-.32,4.85-.48-18.65-10.83-37.97-21.17-59.4-28.57-20.89-7.21-43.71-11.6-66.74-15.31ZM383.03,132.47c-53.17,16.2-101.27,44.01-141.37,80.45,6.3,3.9,13.91,6.89,22.82,8.98h0c1.78.42,3.6.79,5.47,1.14,1.57-1.05,3.11-2.08,4.62-3.09h0s0,0,0,0c24.26-16.19,41.91-27.33,52.94-33.43,12.01-6.91,28.43-14.82,49.25-23.71l.75-2.34c2.57-7.38,4.41-16.71,5.51-28h0ZM274.58,219.95c-1.51,1.01-3.05,2.04-4.62,3.09-1.87-.34-3.7-.72-5.47-1.13-8.66,23.14-16.56,46.35-20.63,68.83-3.97,21.9-4.28,43.01-3.72,63.7.78-1.12,1.58-2.25,2.38-3.39,2.12,1,4.24,2,6.37,2.99-.54-20.38-.22-40.71,3.59-61.74,4.22-23.32,12.75-47.61,22.1-72.34h0ZM487.44,320.48c-55.91,31.97-109.26,62.5-134.66,77.16,1.57.59,3.15,1.17,4.72,1.75l-.26,5.78c25.38-14.65,78.57-45.08,134.36-76.99-1.67-.93-3.33-1.85-4.99-2.77.28-1.65.55-3.29.82-4.93h0ZM242.53,351.04c-23.8,33.78-39.78,58.09-47.93,72.93-8.82,15.2-18.3,35.94-28.44,62.22,13.9,34.94,25.17,59.91,33.8,74.92,8.33,15.44,22.5,36.14,42.52,62.1,39.98-18.33,77.82-35.08,113.53-50.24-2.02-56.03-1.72-109.27.88-159.71l.62-13.87c-38.63-14.28-76.95-30.4-114.97-48.35ZM168.08,481.25l-48.07.66c-.03,2.33-.05,4.66-.04,6.99,0,.59,0,1.18,0,1.77l47.71-.66c-.5-1.26-1.01-2.53-1.52-3.82.65-1.67,1.29-3.32,1.93-4.95h0ZM239.83,619.77c.44,25.14,1.4,50.21,5.69,73.04,4.06,21.62,11.08,41.15,18.6,60.02,2.31-.48,4.43-.85,6.36-1.11l3.54,2.25c-8.14-20.14-15.68-40.32-19.9-62.78-4.11-21.87-5.08-45.99-5.52-70.78-2.04.93-4.08,1.86-6.13,2.8-.89-1.16-1.77-2.31-2.64-3.44h0ZM355.79,566.77h0c.06,2.06.13,4.13.21,6.2-1.34.57-2.69,1.14-4.03,1.72l134.79,77.99c-.42-1.82-.87-3.6-1.31-5.34,1.71-.86,3.42-1.71,5.12-2.57l-134.77-77.99h0ZM636.98,561.79l9.32,7.21c34.87,27.13,65.04,49.27,90.53,66.42-20.85,49.16-38.51,82.62-52.98,100.36-6.14,8.62-15.07,20.27-26.77,34.96-35.9,4.31-62.57,6.46-80.01,6.45-17.53.38-43.32-1.21-77.37-4.78-1.73-53.12-6.48-94.82-14.26-125.08,54.59-27.3,105.1-55.82,151.54-85.54M499.47,765.94c-16.61,7.79-43.73,19.47-68.06,27.47-21.64,7.12-41.11,11.35-60.29,15.02,1.45.71,2.91,1.44,4.41,2.17l1.72,5.56c17.93-3.51,36.47-7.71,56.89-14.43,25.71-8.46,54.35-20.88,70.97-28.76-1.78-.18-3.58-.37-5.4-.56-.07-2.17-.15-4.33-.23-6.47h0ZM270.48,751.72c-1.93.25-4.06.62-6.37,1.11-6.83,1.43-15.32,3.87-25.46,7.33,40.57,37.69,89.56,66.42,143.83,83.05-1.45-11.54-3.16-20.44-5.13-26.68l-1.84-5.92c-1.49-.73-2.96-1.46-4.4-2.17h0c-23.07-11.42-40.06-20.23-50.95-26.42-13.11-7.37-28.32-16.61-45.66-27.74l-.48-.3h0s-3.54-2.25-3.54-2.25ZM490.53,116.39c205.2-.54,371.98,165.37,372.51,370.56.54,205.19-165.36,371.97-370.56,372.51-205.19.54-371.98-165.36-372.51-370.56-.54-205.19,165.37-371.98,370.56-372.51ZM490.51,107.62c-210.03.55-379.85,171.27-379.3,381.3s171.27,379.85,381.3,379.29c210.03-.55,379.85-171.26,379.3-381.29-.56-210.03-171.27-379.85-381.3-379.3ZM659.93,767.16c-.93,1.17-1.88,2.36-2.84,3.57-1.65.2-3.28.39-4.89.58l23.56,39.31c2.53-1.45,5.05-2.93,7.55-4.44l-23.37-39.03ZM835.46,539.24c-16.25,19.58-32.51,38.68-51.31,55.09-18.76,16.37-40.14,30.15-52.38,37.65,1.71,1.16,3.4,2.31,5.07,3.43-.72,1.7-1.44,3.39-2.15,5.05,12.04-7.31,35.04-21.91,55.23-39.53,17.57-15.34,32.93-32.9,47.76-50.65-.97-1.21-1.85-2.4-2.63-3.55.15-2.56.3-5.05.43-7.49h0Z"/>
</svg>