<?xml version="1.0" encoding="UTF-8"?>
<svg id="Layer_1" xmlns="http://www.w3.org/2000/svg" version="1.1" viewBox="0 0 1000 1000">
  <!-- Generator: Adobe Illustrator 30.1.0, SVG Export Plug-In . SVG Version: 2.1.1 Build 136)  -->
  <path d="M300.08,867.41h400.07v-397.38c0-5.74,3.85-10.78,9.4-12.24l138.51-37.15-29.22-96.84v-.24c-28.7-101.69-79.4-127.39-156.06-166.19-11.36-5.74-22.99-11.66-35.14-18.07-6.69,23.69-21.13,43.66-42.68,58.37-23.17,15.87-53.3,24.61-84.87,24.61s-61.73-8.76-84.87-24.61c-21.55-14.75-35.96-34.68-42.62-58.37-12.15,6.41-23.75,12.3-35.14,18.07-76.69,38.83-127.39,64.51-156.06,166.19v.24l-29.28,96.84,138.51,37.15c5.56,1.46,9.4,6.5,9.4,12.24l.03,397.38ZM712.82,892.75h-425.44c-6.99,0-12.67-5.68-12.67-12.67v-400.31l-141.8-38.01c-6.78-1.8-10.78-8.76-8.94-15.51.03-.15.06-.24.12-.37l32.97-109.26c31.72-112.31,89.29-141.47,169.03-181.82,15.75-8,32.09-16.3,49.55-25.89,6.11-3.36,13.83-1.13,17.22,4.98.79,1.46,1.31,3.08,1.5,4.73,5.86,54.13,57.3,78.37,105.72,78.37s99.86-24.24,105.72-78.37c.76-6.96,7.02-12,13.98-11.23,1.65.18,3.27.7,4.73,1.5,17.46,9.59,33.79,17.86,49.55,25.89,79.68,40.36,137.25,69.54,168.91,181.83l32.97,109.26c2.01,6.69-1.77,13.77-8.49,15.78-.12.06-.24.06-.37.12l-141.65,38.01v400.31c.03,6.99-5.62,12.67-12.61,12.67"/>
  <path d="M597.73,802.38c-48.05,0-92.29-6.01-133.44-11.6-65.73-8.94-122.48-16.64-172.06,3.88-6.47,2.69-13.89-.4-16.55-6.87-2.69-6.47.4-13.89,6.87-16.55,55.9-23.17,115.82-15.02,185.18-5.59,70.58,9.59,150.63,20.45,242.12-1.56,6.78-1.77,13.71,2.26,15.48,9.04,1.77,6.78-2.26,13.71-9.04,15.48-.18.06-.34.09-.52.15-38.68,9.22-78.27,13.77-118.05,13.61"/>
  <path d="M287.38,482.72h-.46c-6.99-.24-12.46-6.14-12.18-13.13l5.46-146.17c.24-6.81,5.83-12.18,12.67-12.18h.49c6.96.24,12.42,6.11,12.18,13.07v.06l-5.46,146.17c-.28,6.78-5.89,12.15-12.7,12.18"/>
  <path d="M712.82,482.72c-6.81,0-12.39-5.37-12.67-12.18l-5.47-146.14c-.24-6.99,5.19-12.88,12.18-13.13,6.99-.24,12.88,5.19,13.13,12.18l5.43,146.2c.24,6.99-5.19,12.85-12.18,13.13l-.43-.06"/>
  <path d="M500.1,152.32c-41.46-.18-82.61-7.02-121.9-20.27-6.69-2.05-10.47-9.1-8.46-15.78,2.05-6.69,9.1-10.47,15.78-8.46.18.06.4.12.58.18,76.66,25.34,151.2,25.34,227.89,0,6.59-2.35,13.83,1.1,16.18,7.66,2.35,6.59-1.1,13.83-7.66,16.18-.18.06-.4.15-.58.18-39.23,13.28-80.38,20.12-121.84,20.3"/>
  <path d="M366.05,394.71c-6.99,0-12.67-5.68-12.67-12.67v-103.03c0-6.99,5.68-12.67,12.67-12.67s12.67,5.68,12.67,12.67v103.03c-.03,6.99-5.68,12.67-12.67,12.67ZM634.15,394.71c-6.99,0-12.67-5.68-12.67-12.67v-103.03c0-6.99,5.68-12.67,12.67-12.67s12.67,5.68,12.67,12.67v103.03c0,6.99-5.68,12.67-12.67,12.67"/>
  <path d="M575.14,343.18h-150.11c-6.99,0-12.67-5.68-12.67-12.67s5.68-12.67,12.67-12.67h150.14c6.99,0,12.67,5.68,12.67,12.67s-5.68,12.67-12.7,12.67"/>
</svg>